# xmcd
#
# Track frame offsets:
#  150
#  11930
#  25715
#  40050
#  52232
#  64622
#  77992
#  90757
#  101925
#  113915
#  127677
#  140855
#  155795
#  170140
#  182215
#  194787
#
# Disc length: 2786 seconds
#
# Revision: 0
# Processed by: cddbd v1.5.1PL2 Copyright (c) Steve Scherf et al.
# Submitted via: Collectorz.com_Music_Collector 6.9
#
DISCID=e80ae010
DTITLE=Various Artist - Chicago Blues
DYEAR=1900
DGENRE=Blues/ Country
TTITLE0=Waters, Muddy - You're Gonna Miss Me
TTITLE1=Nighthawk, Robert - Sweet Black Angel
TTITLE2=Gillum, Jazz - Hand Reader Blues
TTITLE3=Prior, Snooky - Raisin' Sand
TTITLE4=Floyd, Eddie - I Had To Let Her Go
TTITLE5=Red, Tampa - It's A Brand New Boogey
TTITLE6=Foster, Leroy - Shady Grove Blues
TTITLE7=Walter, Little - I Just Keep Loving
TTITLE8=Brown, Othum - Ora Nelle Blues
TTITLE9=Louis Jimmy, St. - So Nice And Kind
TTITLE10=Williamson, Sonny Boy  - Hoodoo Hoodoo
TTITLE11=Jones, Johnny - Shelby Country Blues
TTITLE12=Slim, Sunnyland - It's All Over Now
TTITLE13=Young, Johnny - Let Me Ride Your Mule
TTITLE14=Sellers, John - Let Me Be Your Sidetrack
TTITLE15=Broonzy, Big Bill - San Antonio Blues
EXTD=
EXTT0=
EXTT1=
EXTT2=
EXTT3=
EXTT4=
EXTT5=
EXTT6=
EXTT7=
EXTT8=
EXTT9=
EXTT10=
EXTT11=
EXTT12=
EXTT13=
EXTT14=
EXTT15=
PLAYORDER=
